<?xml version="1.0" encoding="UTF-8"?>
<svg id="Layer_1" xmlns="http://www.w3.org/2000/svg" version="1.1" viewBox="0 0 32 32">
  <!-- Generator: Adobe Illustrator 29.1.0, SVG Export Plug-In . SVG Version: 2.1.0 Build 142)  -->
  <defs>
    <style>
      .st0 {
        fill: #fff;
      }
    </style>
  </defs>
  <g>
    <path class="st0" d="M.34,19.28c2.85,5.99,12.68,4.6,15.33,8.26-1.02-5.36-11.67-4.77-15.33-8.26ZM15.67,27.54c2.65-3.66,12.48-2.27,15.33-8.26-3.66,3.49-14.31,2.9-15.33,8.26Z"/>
    <path class="st0" d="M16.34,2.82h-.86l.7.51-.27.82.7-.51.7.51-.27-.82.7-.51h-.86l-.27-.82-.27.82Z"/>
    <path class="st0" d="M15.67,8.5c-2.81,3.65-9.22,4.28-9.22,9.19.72-3.04,7.2-4.16,9.22-6.59,2.02,2.43,8.5,3.54,9.22,6.59,0-4.91-6.41-5.54-9.22-9.19ZM26.75,20.16s-1.87-.08-2.84-.38c.32-1.61-.36-3.11-2.39-3.72,1.43,1.2,1.38,3.89.43,5.49,2.18-.78,3.97-.89,4.79-1.39ZM9.81,16.07c-2.02.6-2.71,2.1-2.39,3.72-.97.3-2.84.38-2.84.38.83.5,2.61.61,4.79,1.39-.96-1.6-1-4.29.43-5.49Z"/>
    <path class="st0" d="M3.09,24.92c2.02,4.12,10.78,2.64,12.58,3.66-1.64-3.32-9.6-1.6-12.58-3.66ZM15.67,28.58c1.8-1.02,10.56.45,12.58-3.66-2.98,2.06-10.94.34-12.58,3.66Z"/>
    <path class="st0" d="M18.9,5.07c-.47,1.34-1.73,2.29-3.23,2.29-1.89,0-3.42-1.53-3.42-3.42,0-1.5.96-2.77,2.3-3.23-.55.55-.88,1.32-.88,2.16,0,1.7,1.38,3.08,3.07,3.08.84,0,1.6-.34,2.15-.88Z"/>
  </g>
  <path class="st0" d="M28.25,24.92c-3.09,3.12-10.76,1.6-12.58,3.66,1.64-3.32,9.6-1.6,12.58-3.66Z"/>
  <path class="st0" d="M3.09,24.92c3.09,3.12,10.76,1.6,12.58,3.66-1.64-3.32-9.6-1.6-12.58-3.66Z"/>
  <path class="st0" d="M31,19.28c-2.74,4.15-13.27,3.75-15.33,8.26,1.02-5.36,11.67-4.77,15.33-8.26Z"/>
  <path class="st0" d="M.34,19.28c2.74,4.15,13.27,3.75,15.33,8.26-1.02-5.36-11.67-4.77-15.33-8.26Z"/>
  <path class="st0" d="M23.01,20.53c.67-1.36.32-3.84-1.47-4.46,2.02.6,2.71,2.1,2.39,3.72.97.3,2.84.38,2.84.38-1.13.34-2.61,0-3.75.36Z"/>
  <path class="st0" d="M8.34,20.53c-.67-1.36-.32-3.84,1.47-4.46-2.02.6-2.71,2.1-2.39,3.72-.97.3-2.84.38-2.84.38,1.13.34,2.61,0,3.75.36Z"/>
  <path class="st0" d="M18.9,5.07c-1.56,2.13-4.22,1.88-5.39.39-1.02-1.31-.99-3.42,1.05-4.75-.55.55-.88,1.32-.88,2.16,0,1.7,1.38,3.08,3.07,3.08.84,0,1.6-.34,2.15-.88Z"/>
  <path class="st0" d="M15.67,9.95c-2.56,2.7-8.89,3.87-9.22,7.74.72-3.04,7.2-4.16,9.22-6.59,2.02,2.43,8.5,3.54,9.22,6.59-.33-3.87-6.66-5.04-9.22-7.74Z"/>
</svg>